<svg width="14" height="14" viewBox="0 0 14 14" fill="none" xmlns="http://www.w3.org/2000/svg">
    <defs>
        <clipPath id="clip0_6028_11277">
            <rect width="14" height="14" fill="white" />
        </clipPath>
    </defs>
    <g clip-path="url(#clip0_6028_11277)">
        <path d="M4.66667 6.4161H7.29167C7.67844 6.4161 8.04937 6.26245 8.32286 5.98896C8.59635 5.71547 8.75 5.34454 8.75 4.95776C8.75 4.57099 8.59635 4.20006 8.32286 3.92657C8.04937 3.65308 7.67844 3.49943 7.29167 3.49943H4.66667V6.4161ZM10.5 9.0411C10.5 9.38582 10.4321 9.72716 10.3002 10.0456C10.1683 10.3641 9.97491 10.6535 9.73115 10.8973C9.4874 11.141 9.19802 11.3344 8.87954 11.4663C8.56106 11.5982 8.21972 11.6661 7.875 11.6661H3.5V2.33276H7.29167C7.80556 2.33279 8.30814 2.48364 8.73709 2.76663C9.16605 3.04962 9.5025 3.4523 9.70474 3.92472C9.90698 4.39714 9.9661 4.91854 9.87477 5.42425C9.78345 5.92996 9.5457 6.39775 9.191 6.7696C9.58921 7.00019 9.91978 7.33145 10.1495 7.73014C10.3793 8.12883 10.5002 8.58094 10.5 9.0411ZM4.66667 7.58276V10.4994H7.875C8.26177 10.4994 8.63271 10.3458 8.9062 10.0723C9.17969 9.7988 9.33333 9.42787 9.33333 9.0411C9.33333 8.65432 9.17969 8.28339 8.9062 8.0099C8.63271 7.73641 8.26177 7.58276 7.875 7.58276H4.66667Z" fill="#484848" />
    </g>
</svg>